<?xml version="1.0" encoding="utf-8"?>
<!-- Generator: Adobe Illustrator 22.0.1, SVG Export Plug-In . SVG Version: 6.00 Build 0)  -->
<svg version="1.1" id="Layer_1" xmlns="http://www.w3.org/2000/svg" xmlns:xlink="http://www.w3.org/1999/xlink" x="0px" y="0px"
	 viewBox="0 0 2000 2000" style="enable-background:new 0 0 2000 2000;" xml:space="preserve">
<style type="text/css">
	.st0{fill:#F3E33E;}
	.st1{fill:#FE7400;}
	.st2{fill:#23305F;}
	.st3{fill:#F3E43E;}
	.st4{fill:#E63445;}
	.st5{fill:#CD2838;}
	.st6{fill:#CF66D9;}
	.st7{fill:#D132DF;}
	.st8{fill:#F4E63E;}
	.st9{fill:#2FA461;}
	.st10{fill:#F4E146;}
	.st11{fill:#7A1D7D;}
	.st12{fill:#24903D;}
	.st13{fill:#F1D9E6;}
	.st14{fill:#B5B9C8;}
	.st15{fill:#A5AABC;}
	.st16{fill:#FBFBFB;}
	.st17{fill:#FAEEF1;}
	.st18{fill:#C813EE;}
	.st19{fill:#7B2183;}
	.st20{fill:#E6CFE8;}
	.st21{fill:#CD2A39;}
	.st22{fill:#1D643C;}
	.st23{fill:#2E734C;}
	.st24{fill:#F6E94F;}
	.st25{fill:#E6CFE5;}
</style>
<g>
	<path class="st0" d="M791.8,1107.9c-36-11.2-60.3-38.4-82-66.1c-95.8-122.2-91.6-323.3,31.2-434.7c25.2-22.9,49.1-47.3,73-71.6
		c36.6-37.3,48.4-116.1-11.4-152.7c-14.3-8.7-4.4-13.3,4.7-17.3c46-20,90.4-12.1,134,7.6c5.6,2.5,10,10.5,16.9,5.2
		c5.5-4.2,0.4-10.6,0.2-16c-3.6-113.3,30.9-209.4,133.1-268.6c66.8-38.7,147.6-32.8,208.2,31.9c3.1,3.3,8.9,6.1,5.8,11.9
		c-2.7,5.2-8.6,3.7-13.2,3.4c-57.8-3-100,61.6-92.2,110.9c-4.1,5.9-10.1,3.9-15.5,3.7c-58.9-2.3-104.8,25.8-129.7,79.6
		c-12.8,27.7-19.1,56.6-18.8,87.3c0.4,36-4.5,39.2-37.5,27.4c-6.9-2.5-14-4.1-21.3-4.7c-33.5-2.4-36.3,1.3-22.7,30.6
		c16.3,35.1,4.3,65-18.6,91.9c-16.8,19.7-36.4,36.9-52.9,57.1c-40.9,50-56.5,106.4-47.1,170.1c1.2,7.9,3.8,16,0.1,23.9
		c-46.3,25.7-56.5,72.4-68.3,118.1c-8.6,33.3,1.9,66.1,2.2,99.2c-8.9,15-1.7,27.4,5.8,40.1C782,1086.6,792.9,1094.3,791.8,1107.9z"
		/>
	<path class="st1" d="M834.3,818c-20.8-83.4,1.3-154.8,60.1-216c12.9-13.5,26.8-26.1,39.3-39.9c29.9-33.2,30.4-69.8,0.9-102
		c-11.3-12.3-1.4-15.8,6.6-18c22.4-6.2,45.4-7.2,66.2,4.9c20,11.6,23,3.7,22.4-15.2c-2-67.1,18.8-124.1,75.8-164.3
		c29.2-20.6,61-23.8,94.8-15.3c16.8,10.1,35.8,17.5,46.2,38.6c-13.9,3.2-27.3,2.8-37.5,11.6c-27.3,40.7-27.4,84.2-10.5,128
		c21,54.7,43.5,108.8,57.9,165.7c18.6,73.1,24.6,146.5-1.6,218.6c-17,46.8-42.1,89.8-83.2,120.9c-15.9,4.3-30.9,4.6-41.8-10.6
		c-2.1-5.1-2.3-10.2-0.3-15.3c3.7-6.5,10.4-7.1,16.8-8.2c13.2-2.2,23.3-8.8,25.8-22.3c2.8-15.3-8.7-21.1-20.4-26
		c-2.3-0.9-4.1-2.5-5.7-4.4c-2.5-13.7,0.8-27.4-0.1-41.1c-0.8-13.3-3.9-18.6-17.1-8.7c-19.7,14.7-41.4,22-65.9,12
		c-20.4-14.5-20.7-16.7-2-32.1c7.4-6.1,13.9-12.8,18.8-20.9c34.7-56.1,36.6-113,2-175.8c-1.4,18-5.5,30.7-10.8,42.9
		c-12.5,31.9-33.9,56.3-62.1,75.3c-26.1,17.6-53,34.2-72.7,59.6c-11,14.2-19.6,29.5-24.7,46.9c-2.2,7.5-2.7,16.3-11.7,20
		c-5,1-9.4-1.2-13.9-2.7c-10.2-3.5-20.4-3.5-22.9,9.1c-2.3,12.1,5.2,19.5,17,22c6.8,1.4,14.6-2,20.6,4.1c4.5,8.2,6.6,16.7,3.8,25.9
		c-10.3,15-24.2,16.3-40,10.4C846.1,873,827.2,850.5,834.3,818z"/>
	<path class="st2" d="M1094.6,1346.4c-3.4,58.1-7.6,116.3-0.7,174.2c8.1,67.7,23.7,133,71.2,185.8c8.6,9.5,8.5,16.4-2.5,23.6
		c-56,36.8-96.4,86.3-120.2,149.1c-1.7,4.5-3.6,9.9-9.8,8.9c-4.4-0.7-5.4-5.2-6.9-9.1c-23.3-60.9-61-110.7-114.9-147.7
		c-12.2-8.4-14.1-15.9-4.2-27.5c56.6-66.1,71.9-145.9,75.1-229.4c1.6-42.8,2.4-85.7-3.4-128.4c9.9-14,24.4-9.6,37.6-9
		c10.4,0.5,20.4,4.8,31,3.6C1063.1,1339.9,1080.7,1328.7,1094.6,1346.4z"/>
	<path class="st3" d="M1170.4,932.6c22.5-24.6,43.8-50,60.1-79.3c39.7-71.3,41.1-147.3,26.2-224.7c-12.4-64.9-36.6-126.1-61.3-187.2
		c-18.3-45.2-26.2-90.8,5.8-134.1c1.7-2.3,5.1-3.3,7.7-4.9c-6.4,11.6-0.6,22.3,3.4,32.6c20.7,52.8,42.4,105.3,62.8,158.2
		c27.5,71.4,45.9,144.9,53.7,221.5c9.5,92.7-5.5,179.6-51.9,260.2c-39.7,69-93.1,124.3-167.9,155.9c-2.1,0.9-3.7,3.1-5.5,4.8
		c-5.1,6.4-8.2,0.6-11.8-1.9c-10.6-39.3,12.1-68.2,30.6-98.4c4.6-7.5,17-12.4,8.8-24.6c-0.4-15.8,7.7-29,12.8-43.2
		c2.8-4.2,7-6.7,11.4-8.8c2.2-1,4.5-1.7,6.9-2.2c18.8-1.4,37.7-1.5,55.6-8.6c7.6-3,15.5-5.3,22.6-8.9c-16.6-1.8-32.1,6.8-48.4,4.1
		C1183.9,941.6,1173.4,944.9,1170.4,932.6z"/>
	<path class="st4" d="M1049.6,1345.1c-23.8,3.2-47.7-6.6-71.4,0.6c7-86.9-35.4-144.6-109-183.5c-28.1-14.9-53-34.2-77.4-54.3
		c-9.9-15.7-23.3-28.8-30.9-46.3c-4.4-10.2-4.4-16.8,5.9-22c19,0.4,29.4,16,43.1,25.2c47.7,32,100,50.6,156.8,55.9
		c23.3,2.2,38,14.8,48.2,32.8c21.5,38.1,34.8,78.1,28.5,123.6c-2.7,19.9-9.7,41.7,3.8,61.3
		C1049.2,1340.3,1049.9,1342.5,1049.6,1345.1z"/>
	<path class="st5" d="M1049.6,1345.1l-0.3-0.4c-6.2-11.8-2-24-0.2-35.7c9.1-59.7,1.9-116.4-30.1-168.6c-6.3-10.3-10.3-20.5-0.4-31
		c4.9-5.2,11.6-8.2,16.9-12.9c4.2-3.5,8.1-7.3,11.9-11.2c8.4-8.3,17-16.5,24.6-25.5c17.6-20.4,31.1-45.7,61.7-50
		c22.9,1,11.2,9.9,4.1,17.8c-27.1,30-46.4,63.2-43.7,105.5c8.9,14.8-3.5,31.2,3.6,46.2c11.7,56,14.3,111.7-3.2,167.1
		C1079.8,1340.4,1064.6,1345.2,1049.6,1345.1z"/>
	<path class="st6" d="M1097.8,1179.2c-8.6-14.8-4.7-30.6-3.6-46.2c3.1,0.8,6.2,1.7,9.4,2.5
		C1107.5,1150.9,1093.3,1163.8,1097.8,1179.2z"/>
	<path class="st7" d="M1072.9,1065.4c-5.6,8.8-12.3,16.6-20.8,22.7c-16.9-18.6-14.3-41.2-12.8-63.5c9.6-34,18.8-68.3,47.7-92.5
		c6.1-5.1,11.3-11.4,19.2-14.2c9.8-2,19.5-3.9,26.6,6c11.4,8,24.2,9.8,37.7,8.6c24.7,7.1,48.9,3.2,73.1-3c5.1-1.3,11.9-6.2,13.9,1.7
		c1.9,7.7-5.2,10.5-12.2,10.9c-31.4,5.8-63,9-94.6,1.7c-2.1,9,5.7,12.2,7,18.2c-3.5,2.3-7,4.6-10.5,6.8c-4.6,4.8-10.4,7.5-16.3,10.3
		c-28.8,13.6-49.6,33.5-52.5,67.5C1077.6,1053.2,1073.8,1058.9,1072.9,1065.4z"/>
	<path class="st8" d="M1052.6,826.5c7.8-4.6,12.7-10.9,11.7-20.5c25.4,7.9,47.4,2.3,65.9-16.8c3.8-4,6.3-10,13.4-7.7
		c6.3,2.1,8.1,7.9,8.1,13.5c0,17.5,4.3,35.3-3.4,52.3c-7.3,13.5-23.1,20.6-27.6,36.3c-5.8,7.7-13.6,12.7-22.1,16.8
		c-2.3,0.6-4.7,0.7-7.1,0.4c-8.5-2.5-13.8-9.2-15.9-16.7C1070,864,1052.8,848.6,1052.6,826.5z"/>
	<path class="st9" d="M901.5,882.6c34.2,27.5,41.5,66.7,46.8,106.9c-0.5,13-6.7,16.7-18.4,11.1c-2.7-5.9-6-11.6-7.9-17.7
		c-16.3-52.7-54.9-75.3-107-79.9c-6.9-0.6-14.4,2.5-22.3-4.7c23.7-13.7,48.3-0.2,71-5.4C877.9,895.3,891.4,895,901.5,882.6z"/>
	<path class="st10" d="M1084.7,760.9c4.6-40.8,8.3-81.6-1.7-122.2c-2.4-9.6-1.7-23-18.5-16.2c5.1-12.4,12.3-24.2,10-38.6
		c-0.6-3.6-1.2-8.8,3.4-10.5c5.8-2.2,9.5,2.7,11.4,6.6c17.1,37,30.2,75,21.5,116.6C1106,719.4,1100.1,742.2,1084.7,760.9z"/>
	<path class="st11" d="M1115.7,883.6c3.1-19,15.3-30,32.6-36.4c24.7,5.4,35,16.9,30.7,34.5c-5.2,21.4-21.9,29.1-50.2,23
		C1115.5,903.3,1116.7,892.8,1115.7,883.6z"/>
	<path class="st12" d="M898.6,826c3.4,11,4.6,22-1.3,32.7c-7.5,1.8-14.3,7.3-22.9,3c-10.7-5.4-18-13.4-20.3-25.1
		c-1.8-8.9,3-15.9,10.2-20.1C878.5,808.2,888.2,819.1,898.6,826z"/>
	<path class="st13" d="M1115.7,883.6c4.4,7.1,8.7,14.2,13.1,21.2c3.3,6,5.8,12.1,3.9,19.1c-9.4-0.3-18.9-0.5-28.3-0.8
		c-16.3-5.3-11.6-15.6-6.3-26.1C1104,892.6,1109.9,888.1,1115.7,883.6z"/>
	<path class="st14" d="M1024.2,1698.3c0.6-21.8,2.5-43.7,1.3-65.4c-1.3-23.7,6.6-45.1,13.1-67.3c8,25.7,5.3,52,5.5,78
		c0.2,23.8-3.2,48.1,10.2,70C1041,1715,1034.9,1702.2,1024.2,1698.3z"/>
	<path class="st15" d="M1044.5,1742.9c2,37-3,73.3-10.3,112.6c-14.1-38.6-7.1-75.5-10.2-111.6
		C1030.6,1738.3,1037.5,1740,1044.5,1742.9z"/>
	<path class="st16" d="M1044.5,1742.9c-6.5,5.3-13.4,3.8-20.4,1.1c-21.3-15.3-16.5-30.4,0.1-45.6c16.9-8.3,19.2,11.9,30.1,15.4
		C1056.6,1725.3,1049.9,1733.9,1044.5,1742.9z"/>
	<path class="st17" d="M1072.9,1065.4c-7-47.9,22.8-86.6,74.2-96.5c0.1,15.1-8.8,27.3-13.2,40.9
		C1109.5,1023.9,1091.1,1044.6,1072.9,1065.4z"/>
	<path class="st18" d="M1157.6,962.1c-17.3,1.6-11.3-17.5-21.4-23.3c25.5,0.5,50,4.4,74.9,3.6c11.3-0.3,22.9-12.4,34.2-0.1
		c-7.4,5-15,9.1-24.1,9.8c-20.9,5.7-42.8,5-63.8,10.1L1157.6,962.1z"/>
	<path class="st7" d="M1157.3,962.1c20.5-8.3,41.8-11.3,63.8-10.1C1200.7,961.3,1179.3,963.7,1157.3,962.1z"/>
	<path class="st19" d="M1052.6,826.5c18.4,21.1,20,51.8,41,71.3c6.3,15,0.2,26.8-10.6,36.5c-28.3,25.2-38.2,58.7-43.2,94.5
		c-2.7,23.4,6.1,46.8-0.7,70.1c-2,4.6-5.1,8.1-10.4,8.8c-11.7-12.6-17.2-28.3-22.7-44.1c-8.2-12.3-11.3-25.2-5.2-39.4
		c-0.1-42.7,24.6-76.8,39.9-114.2c3.5-21.7,1.3-43.6,2.6-65.3c-0.8-3-1.2-6.1-2.4-8.8c-1.7-4.1-6.7-8.7-2.9-12.5
		C1043.1,818.3,1047.3,826.8,1052.6,826.5z"/>
	<path class="st20" d="M1039.1,1098.8c-8.1-24.3-7.3-49.1-3.6-74c2.1-3.3,4-7.1,9-4.7c0.9,22.9,0.7,45.9,7.5,68.1
		C1049,1093.2,1045,1097.2,1039.1,1098.8z"/>
	<path class="st21" d="M1000.8,1024.2c3.5,12.9,6.1,25.9,5.2,39.4c-13,15.9-23.5,35.5-50.3,26.8c-31.1-10.1-46.4-41.3-34-72.2
		c2.4-6,5.5-11.6,8.3-17.5c8.7,0.5,13.8-4.9,18.4-11.1C971,993.2,987.2,1006.8,1000.8,1024.2z"/>
	<path class="st22" d="M843.9,1060c20.2-21.9,37.4-45.8,50.4-74.7C912.8,1018.1,890.6,1050.5,843.9,1060z"/>
	<path class="st23" d="M968.3,800.8c-21.9,40.3-5.6,81.3-12,121.2C912.5,891,917.4,830.7,968.3,800.8z"/>
	<path class="st24" d="M1043.3,844.6c10.5,22.2,13.3,44.2-2.6,65.4c-14.7-3.6-30-5.5-43-14c-8.3-5.4-11.8-13.4-0.8-18
		C1015,870.1,1027.4,855.1,1043.3,844.6z"/>
	<path class="st25" d="M1044.6,1020.1c-3,1.6-6,3.2-9,4.7c2.3-38.7,16-72.4,45.5-98c9.6-8.4,14.8-16.5,12.6-29
		c1.5-0.5,3-0.7,4.6-0.7c1.7,8.8-3.4,19.2,6.3,26C1071.1,947.2,1057.9,983.7,1044.6,1020.1z"/>
</g>
</svg>
